<?xml version="1.0" encoding="iso-8859-1"?>
<!-- Generator: Adobe Illustrator 19.0.0, SVG Export Plug-In . SVG Version: 6.00 Build 0)  -->
<svg version="1.1" id="Capa_1" xmlns="http://www.w3.org/2000/svg" xmlns:xlink="http://www.w3.org/1999/xlink" x="0px" y="0px"
     viewBox="0 0 488.472 488.472" style="enable-background:new 0 0 24 24;" xml:space="preserve">
	<path d="m331.351 96.061c-5.963-5.963-15.622-5.963-21.585 0l-305.294 305.294c-5.963 5.963-5.963 15.622 0 21.585l61.059 61.059c2.981 2.981 6.887 4.472 10.793 4.472s7.811-1.491 10.793-4.472l305.293-305.294c5.963-5.963 5.963-15.622 0-21.585 0 0-61.059-61.059-61.059-61.059zm-255.028 355.561-39.473-39.474 207.385-207.385 39.474 39.474c0-.001-207.386 207.385-207.386 207.385zm228.971-228.971-39.474-39.474 54.738-54.738 39.474 39.474z"></path><path d="m213.707 122.118c15.265-30.529 30.529-45.794 61.059-61.059-30.529-15.265-45.794-30.529-61.059-61.059-15.265 30.529-30.531 45.794-61.059 61.059 30.53 15.265 45.794 30.53 61.059 61.059z"></path><path d="m457.942 213.707c-7.632 15.265-15.267 22.897-30.529 30.529 15.265 7.632 22.897 15.265 30.529 30.529 7.632-15.265 15.265-22.897 30.529-30.529-15.264-7.632-22.896-15.265-30.529-30.529z"></path><path d="m457.942 45.795c-22.897-11.449-34.346-22.897-45.794-45.794-11.449 22.897-22.899 34.346-45.794 45.794 22.897 11.449 34.346 22.897 45.794 45.794 11.449-22.897 22.897-34.346 45.794-45.794z"></path>
</svg>
