<svg enable-background="new 0 0 511.997 511.997" height="512" viewBox="0 0 511.997 511.997" width="512" xmlns="http://www.w3.org/2000/svg">
    <g>
        <g>
            <path d="M511.793,186.518c-0.655-11.844-10.112-21.301-21.954-21.954c-2.111-0.115-29.974-1.472-66.212,4.893
      c-8.084-36.28-20.178-61.744-20.794-63.028c-5.137-10.692-17.489-15.809-28.683-11.881c-1.344,0.472-27.893,9.923-59.257,29.853
      c-21.036-29.997-41.617-48.698-43.372-50.268c-8.835-7.914-22.21-7.914-31.047,0c-1.755,1.57-22.336,20.271-43.372,50.268
      c-31.365-19.93-57.913-29.381-59.257-29.853c-11.189-3.93-23.549,1.188-28.683,11.881c-0.616,1.283-12.709,26.747-20.794,63.027
      c-36.237-6.367-64.097-5.01-66.212-4.892c-11.844,0.653-21.3,10.111-21.954,21.954c-0.271,4.923-5.84,121.399,64.921,192.158
      c60.028,60.026,152.95,65.124,182.764,65.124c3.806,0,6.561-0.082,8.112-0.146c1.548,0.064,4.302,0.146,8.111,0.146
      c29.821,0,122.74-5.101,182.764-65.124C517.633,307.917,512.065,191.442,511.793,186.518z M369.093,147.374
      c3.108,8.995,6.575,20.48,9.417,33.565c-9.361,3.205-18.811,7.023-28.129,11.564c-3.376-9.8-7.352-19.18-11.704-28.065
      C349.914,157.227,360.511,151.552,369.093,147.374z M142.939,147.358c8.556,4.162,19.124,9.83,30.383,17.07
      c-4.353,8.888-8.331,18.271-11.709,28.076c-9.315-4.539-18.76-8.356-28.118-11.561
      C136.342,167.896,139.823,156.385,142.939,147.358z M98.033,345.766c-39.675-39.678-48.927-101.488-50.938-134.363
      c13.842,0.825,32.811,2.946,53.125,8.12c0.596,0.178,1.198,0.338,1.814,0.47c16.267,4.273,33.315,10.523,49.236,19.65
      c-0.492,5.354-0.766,10.778-0.766,16.273c0,55.482,26.526,104.301,50.791,137.359C168.532,387.833,127.389,375.122,98.033,345.766
      z M255.997,386.899c-21.841-24.697-58.951-74.915-58.951-130.982c0-56.078,37.121-106.301,58.95-130.985
      c21.841,24.696,58.953,74.912,58.953,130.985C314.948,311.983,277.838,362.201,255.997,386.899z M413.963,345.764
      c-29.19,29.19-70.359,41.909-103.179,47.395c24.243-33.056,50.707-81.825,50.707-137.244c0-5.492-0.275-10.913-0.766-16.265
      c36.331-20.78,78.826-26.644,104.171-28.196C462.878,244.36,453.612,306.116,413.963,345.764z"/>
        </g>
    </g>
</svg>