<?xml version="1.0" encoding="iso-8859-1"?>
<!-- Generator: Adobe Illustrator 18.1.1, SVG Export Plug-In . SVG Version: 6.00 Build 0)  -->
<svg version="1.1" id="Capa_1" xmlns="http://www.w3.org/2000/svg" xmlns:xlink="http://www.w3.org/1999/xlink" x="0px" y="0px"
     viewBox="0 0 340.000000 350.000000" style="enable-background:new 0 0 612 612;" xml:space="preserve">
    <g transform="translate(-855.000000,-635.000000) scale(8)">
        <path d="m 118.4052,121.83336 c -2.8046,-0.58168 -5.83939,-2.65509 -7.14365,-4.88064 -0.36082,-0.6157 -0.89472,-1.81319 -1.18644,-2.66109 -0.49686,-1.44415 -0.5304,-2.22237 -0.5304,-12.30671 0,-9.833802 0.0429,-10.888826 0.49529,-12.195559 0.97296,-2.810089 2.37627,-4.68418 4.53179,-6.052136 2.35674,-1.495649 3.41453,-1.662829 11.77396,-1.860838 8.35398,-0.19788 7.64987,-0.08491 13.22917,-2.122479 3.70787,-1.354119 7.80033,0.445596 9.43947,4.151134 0.47315,1.069643 0.49559,1.901976 0.42483,15.756146 l -0.0747,14.626862 -0.8993,1.65842 c -1.40469,2.5904 -3.12269,4.16439 -5.84757,5.35741 -1.45183,0.63564 -1.48046,0.63726 -12.30313,0.69337 -5.96635,0.0309 -11.32554,-0.0428 -11.9093,-0.16389 z m 13.9468,-8.50424 c 2.98914,-0.63418 6.06103,-3.00768 7.56232,-5.84305 1.65786,-3.13107 1.70715,-7.599122 0.11903,-10.790552 -0.90811,-1.8249 -3.32036,-4.220189 -5.1531,-5.116863 -3.29797,-1.613549 -7.23657,-1.632885 -10.38658,-0.05099 -1.01865,0.511551 -2.14974,1.198863 -2.51355,1.527353 -1.15358,1.04164 -2.51709,2.92863 -3.18766,4.41148 -0.57617,1.2741 -0.64769,1.79242 -0.63898,4.630212 0.01,3.07971 0.0418,3.26014 0.89226,4.97922 2.45,4.95229 7.73391,7.43543 13.30626,6.25319 z m -6.00625,-3.53465 c -1.80969,-0.73477 -3.42907,-2.31562 -4.40768,-4.30281 -0.90155,-1.83071 -0.88746,-5.20923 0.0295,-7.078612 0.91223,-1.85968 2.86226,-3.68195 4.57023,-4.2708 4.31746,-1.4885 8.8137,0.35262 10.7529,4.40309 0.98738,2.062362 0.98687,4.814472 -0.001,6.889922 -1.99546,4.19123 -6.72121,6.07363 -10.94371,4.35921 z m 17.5417,-21.575207 c 1.42108,-1.323935 0.91395,-3.668879 -0.89145,-4.122005 -2.40363,-0.603272 -4.0206,2.13432 -2.31325,3.916413 0.88309,0.921744 2.33595,1.01495 3.2047,0.205592 z"/>
    </g>
</svg>
