<?xml version="1.0" encoding="iso-8859-1"?>
<!-- Generator: Adobe Illustrator 19.0.0, SVG Export Plug-In . SVG Version: 6.00 Build 0)  -->
<svg version="1.1" id="Capa_1" xmlns="http://www.w3.org/2000/svg" xmlns:xlink="http://www.w3.org/1999/xlink" x="0px" y="0px"
	 viewBox="0 0 511.151 511.151" style="enable-background:new 0 0 511.151 511.151;" xml:space="preserve">
<g>
	<g>
		<path d="M393.818,223.575c-64.683,0-117.333,52.629-117.333,117.333s52.651,117.333,117.333,117.333
			s117.333-52.629,117.333-117.333S458.5,223.575,393.818,223.575z M393.818,436.909c-52.928,0-96-43.072-96-96
			c0-52.928,43.072-96,96-96c52.928,0,96,43.072,96,96C489.818,393.837,446.746,436.909,393.818,436.909z"/>
	</g>
</g>
<g>
	<g>
		<path d="M476.762,408.813L325.935,257.965c-4.16-4.16-10.923-4.16-15.083,0c-4.16,4.16-4.16,10.923,0,15.083l150.827,150.848
			c2.091,2.069,4.821,3.115,7.552,3.115c2.731,0,5.461-1.045,7.531-3.115C480.922,419.735,480.922,412.973,476.762,408.813z"/>
	</g>
</g>
<g>
	<g>
		<path d="M443.524,153.261C384.73,88.536,306.458,52.909,223.151,52.909S61.572,88.536,2.778,153.261
			c-3.968,4.352-3.648,11.115,0.725,15.061c4.373,3.947,11.115,3.669,15.061-0.725c54.72-60.203,127.36-93.355,204.587-93.355
			s149.867,33.152,204.587,93.355c2.112,2.325,4.992,3.499,7.893,3.499c2.56,0,5.141-0.917,7.168-2.752
			C447.151,164.375,447.492,157.634,443.524,153.261z"/>
	</g>
</g>
<g>
	<g>
		<path d="M361.818,188.546c-92.352-74.944-223.147-64.171-304.213,25.024c-3.947,4.373-3.627,11.115,0.725,15.083
			c2.048,1.856,4.608,2.773,7.168,2.773c2.901,0,5.803-1.173,7.893-3.477c74.539-82.027,190.187-91.627,274.987-22.848
			c4.587,3.733,11.307,3.029,14.997-1.557C367.108,198.978,366.383,192.258,361.818,188.546z"/>
	</g>
</g>
<g>
	<g>
		<path d="M283.311,235.714c-48.555-21.099-120.213-17.493-170.859,38.208c-3.947,4.373-3.627,11.115,0.725,15.083
			c2.048,1.856,4.608,2.773,7.168,2.773c2.88,0,5.781-1.173,7.893-3.52c43.52-47.893,104.981-51.093,146.56-32.981
			c5.397,2.347,11.691-0.149,14.037-5.525C291.183,244.354,288.708,238.061,283.311,235.714z"/>
	</g>
</g>
<g>
	<g>
		<path d="M263.684,388.311c-5.675-15.509-8.533-31.445-8.533-47.403c0-4.715,0.256-9.344,0.704-13.952
			c0.405-4.075-1.557-8.021-5.056-10.155c-8.469-5.163-18.027-7.893-27.648-7.893c-29.397,0-53.333,23.936-53.333,53.333
			s23.936,53.333,53.333,53.333c14.464,0,28.011-5.739,38.165-16.149C264.175,396.482,265.092,392.173,263.684,388.311z"/>
	</g>
</g>
<g>
</g>
<g>
</g>
<g>
</g>
<g>
</g>
<g>
</g>
<g>
</g>
<g>
</g>
<g>
</g>
<g>
</g>
<g>
</g>
<g>
</g>
<g>
</g>
<g>
</g>
<g>
</g>
<g>
</g>
</svg>
