<?xml version="1.0" encoding="iso-8859-1"?>
<!-- Generator: Adobe Illustrator 18.1.1, SVG Export Plug-In . SVG Version: 6.00 Build 0)  -->
<svg version="1.1" id="Capa_1" xmlns="http://www.w3.org/2000/svg" xmlns:xlink="http://www.w3.org/1999/xlink" x="0px" y="0px"
	 viewBox="0 0 232.679 232.679" style="enable-background:new 0 0 232.679 232.679;" xml:space="preserve">
<g id="Pause">
	<path style="fill-rule:evenodd;clip-rule:evenodd;" d="M80.543,0H35.797c-9.885,0-17.898,8.014-17.898,17.898v196.883
		c0,9.885,8.013,17.898,17.898,17.898h44.746c9.885,0,17.898-8.013,17.898-17.898V17.898C98.44,8.014,90.427,0,80.543,0z M196.882,0
		h-44.746c-9.886,0-17.899,8.014-17.899,17.898v196.883c0,9.885,8.013,17.898,17.899,17.898h44.746
		c9.885,0,17.898-8.013,17.898-17.898V17.898C214.781,8.014,206.767,0,196.882,0z"/>
</g>
<g>
</g>
<g>
</g>
<g>
</g>
<g>
</g>
<g>
</g>
<g>
</g>
<g>
</g>
<g>
</g>
<g>
</g>
<g>
</g>
<g>
</g>
<g>
</g>
<g>
</g>
<g>
</g>
<g>
</g>
</svg>
