<?xml version="1.0" encoding="iso-8859-1"?>
<!-- Generator: Adobe Illustrator 18.1.1, SVG Export Plug-In . SVG Version: 6.00 Build 0)  -->
<svg version="1.1" id="Capa_1" xmlns="http://www.w3.org/2000/svg" xmlns:xlink="http://www.w3.org/1999/xlink" x="0px" y="0px"
	 viewBox="0 0 250.488 250.488" style="enable-background:new 0 0 250.488 250.488;" xml:space="preserve">
<g id="Previous_track">
	<path style="fill-rule:evenodd;clip-rule:evenodd;" d="M237.484,22.587c-3.266,0-7.591-0.401-11.072,2.005l-92.264,77.91V37.252
		c0-2.507,0.057-14.666-13.004-14.666c-3.265,0-7.59-0.401-11.072,2.005L8.107,110.693c-9.669,6.674-7.997,14.551-7.997,14.551
		s-1.671,7.878,7.997,14.551l101.965,86.102c3.482,2.405,7.807,2.004,11.072,2.004c13.062,0,13.004-11.7,13.004-14.666v-65.249
		l92.264,77.911c3.482,2.405,7.807,2.004,11.072,2.004c13.062,0,13.004-11.7,13.004-14.666V37.252
		C250.488,34.746,250.546,22.587,237.484,22.587z"/>
</g>
<g>
</g>
<g>
</g>
<g>
</g>
<g>
</g>
<g>
</g>
<g>
</g>
<g>
</g>
<g>
</g>
<g>
</g>
<g>
</g>
<g>
</g>
<g>
</g>
<g>
</g>
<g>
</g>
<g>
</g>
</svg>
