<?xml version="1.0" encoding="iso-8859-1"?>
<!-- Generator: Adobe Illustrator 18.1.1, SVG Export Plug-In . SVG Version: 6.00 Build 0)  -->
<svg version="1.1" id="Capa_1" xmlns="http://www.w3.org/2000/svg" xmlns:xlink="http://www.w3.org/1999/xlink" x="0px" y="0px"
	 viewBox="0 0 250.488 250.488" style="enable-background:new 0 0 250.488 250.488;" xml:space="preserve">
<g id="Next_track_2">
	<path style="fill-rule:evenodd;clip-rule:evenodd;" d="M242.381,110.693L140.415,24.591c-3.48-2.406-7.805-2.005-11.071-2.005
		c-13.061,0-13.003,11.7-13.003,14.666v65.249l-92.265-77.91c-3.482-2.406-7.807-2.005-11.072-2.005
		C-0.057,22.587,0,34.287,0,37.252v175.983c0,2.507-0.057,14.666,13.004,14.666c3.265,0,7.59,0.401,11.072-2.005l92.265-77.91
		v65.249c0,2.507-0.058,14.666,13.003,14.666c3.266,0,7.591,0.401,11.071-2.005l101.966-86.101
		c9.668-6.675,7.997-14.551,7.997-14.551S252.049,117.367,242.381,110.693z"/>
</g>
<g>
</g>
<g>
</g>
<g>
</g>
<g>
</g>
<g>
</g>
<g>
</g>
<g>
</g>
<g>
</g>
<g>
</g>
<g>
</g>
<g>
</g>
<g>
</g>
<g>
</g>
<g>
</g>
<g>
</g>
</svg>
