<?xml version="1.0" encoding="iso-8859-1"?>
<!-- Generator: Adobe Illustrator 18.0.0, SVG Export Plug-In . SVG Version: 6.00 Build 0)  -->
<!DOCTYPE svg PUBLIC "-//W3C//DTD SVG 1.1//EN" "http://www.w3.org/Graphics/SVG/1.1/DTD/svg11.dtd">
<svg version="1.1" id="Capa_1" xmlns="http://www.w3.org/2000/svg" xmlns:xlink="http://www.w3.org/1999/xlink" x="0px" y="0px"
	 viewBox="0 0 314 314" style="enable-background:new 0 0 314 314;" xml:space="preserve">
<g>
	<path d="M91.47,0H75.343C58.538,0,44.867,13.671,44.867,30.476v253.048c0,16.805,13.671,30.477,30.476,30.477H91.47
		c16.805,0,30.477-13.672,30.477-30.477V30.476C121.946,13.671,108.274,0,91.47,0z M107.946,283.523
		c0,9.085-7.392,16.477-16.477,16.477H75.343c-9.085,0-16.476-7.392-16.476-16.477V30.476C58.867,21.391,66.258,14,75.343,14H91.47
		c9.085,0,16.477,7.391,16.477,16.476V283.523z"/>
	<path d="M238.657,0H222.53c-16.805,0-30.477,13.671-30.477,30.476v253.048c0,16.805,13.672,30.477,30.477,30.477h16.127
		c16.805,0,30.476-13.672,30.476-30.477V30.476C269.133,13.671,255.462,0,238.657,0z M255.133,283.523
		c0,9.085-7.391,16.477-16.476,16.477H222.53c-9.085,0-16.477-7.392-16.477-16.477V30.476c0-9.085,7.392-16.476,16.477-16.476
		h16.127c9.085,0,16.476,7.391,16.476,16.476V283.523z"/>
</g>
<g>
</g>
<g>
</g>
<g>
</g>
<g>
</g>
<g>
</g>
<g>
</g>
<g>
</g>
<g>
</g>
<g>
</g>
<g>
</g>
<g>
</g>
<g>
</g>
<g>
</g>
<g>
</g>
<g>
</g>
</svg>
