<?xml version="1.0" encoding="iso-8859-1"?>
<!-- Generator: Adobe Illustrator 19.0.0, SVG Export Plug-In . SVG Version: 6.00 Build 0)  -->
<svg version="1.1" id="Capa_1" xmlns="http://www.w3.org/2000/svg" xmlns:xlink="http://www.w3.org/1999/xlink" x="0px" y="0px"
	 viewBox="0 0 511.999 511.999" style="enable-background:new 0 0 511.999 511.999;" xml:space="preserve">
<g>
	<g>
		<path d="M359.983,130.296H200.219c-4.145,0-7.505,3.36-7.505,7.505c0,4.145,3.36,7.505,7.505,7.505h159.763
			c4.145,0,7.506-3.36,7.506-7.505C367.488,133.655,364.128,130.296,359.983,130.296z"/>
	</g>
</g>
<g>
	<g>
		<path d="M165.297,130.296h-25.306c-4.145,0-7.505,3.36-7.505,7.505c0,4.145,3.359,7.505,7.505,7.505h25.306
			c4.145,0,7.505-3.36,7.505-7.505C172.802,133.656,169.442,130.296,165.297,130.296z"/>
	</g>
</g>
<g>
	<g>
		<path d="M218.49,360.341h-78.499c-4.145,0-7.505,3.36-7.505,7.505c0,4.146,3.36,7.505,7.505,7.505h78.499
			c4.145,0,7.505-3.36,7.505-7.505C225.995,363.7,222.635,360.341,218.49,360.341z"/>
	</g>
</g>
<g>
	<g>
		<path d="M249.987,283.66H139.991c-4.145,0-7.505,3.36-7.505,7.505c0,4.146,3.36,7.505,7.505,7.505h109.996
			c4.144,0,7.505-3.36,7.505-7.505C257.492,287.019,254.132,283.66,249.987,283.66z"/>
	</g>
</g>
<g>
	<g>
		<path d="M303.53,206.977H139.991c-4.145,0-7.505,3.36-7.505,7.505s3.36,7.505,7.505,7.505H303.53
			c4.145,0.001,7.505-3.359,7.505-7.505S307.675,206.977,303.53,206.977z"/>
	</g>
</g>
<g>
	<g>
		<path d="M445.564,53.51h-310.17c-27.474,0-49.825,22.352-49.825,49.826V398.64H7.504c-2.003,0-3.924,0.801-5.333,2.224
			c-1.41,1.424-2.192,3.352-2.171,5.355c0.296,29.8,21.711,52.271,49.813,52.271h310.17h0.945c27.474,0,49.825-22.352,49.825-49.826
			v-90.943c0-4.145-3.361-7.504-7.506-7.504c-4.145,0-7.505,3.36-7.505,7.505v90.943c0,19.198-15.618,34.815-34.814,34.815h-0.945
			c-19.629,0-34.591-16.083-34.803-37.409c-0.041-4.116-3.389-7.431-7.505-7.431H100.583V103.335
			c0-19.198,15.618-34.815,34.814-34.815h274.558c-0.22,0.225-0.428,0.461-0.644,0.691c-0.262,0.279-0.527,0.555-0.783,0.839
			c-0.271,0.301-0.532,0.61-0.795,0.918c-0.253,0.295-0.508,0.587-0.754,0.888c-0.255,0.312-0.499,0.632-0.747,0.95
			c-0.24,0.308-0.482,0.613-0.715,0.927c-0.238,0.322-0.466,0.651-0.697,0.979c-0.227,0.322-0.457,0.642-0.677,0.969
			c-0.221,0.331-0.432,0.669-0.645,1.006c-0.213,0.335-0.429,0.667-0.634,1.007c-0.206,0.342-0.4,0.691-0.597,1.038
			c-0.197,0.345-0.399,0.688-0.588,1.039c-0.19,0.351-0.366,0.71-0.547,1.067c-0.181,0.356-0.367,0.709-0.539,1.069
			c-0.173,0.362-0.332,0.731-0.497,1.097c-0.164,0.365-0.333,0.727-0.488,1.096c-0.157,0.373-0.299,0.753-0.447,1.13
			c-0.146,0.372-0.297,0.741-0.434,1.117c-0.141,0.386-0.266,0.779-0.397,1.17c-0.126,0.376-0.259,0.748-0.377,1.128
			c-0.124,0.4-0.231,0.807-0.345,1.212c-0.106,0.378-0.22,0.753-0.318,1.135c-0.107,0.42-0.197,0.846-0.294,1.27
			c-0.085,0.373-0.179,0.744-0.255,1.12c-0.09,0.441-0.161,0.887-0.239,1.332c-0.064,0.368-0.138,0.732-0.194,1.102
			c-0.072,0.475-0.124,0.956-0.183,1.435c-0.042,0.346-0.095,0.688-0.13,1.036c-0.054,0.536-0.087,1.078-0.124,1.619
			c-0.02,0.297-0.052,0.592-0.067,0.89c-0.042,0.841-0.064,1.688-0.064,2.54v2.519v64.093c0,4.146,3.36,7.505,7.505,7.505
			s7.505-3.36,7.505-7.505V113.36h77.203c2.003,0,3.924-0.801,5.333-2.224c1.41-1.424,2.192-3.352,2.171-5.355
			C495.161,75.981,473.746,53.51,445.564,53.51z M310.693,413.651c0.103,0.777,0.223,1.546,0.356,2.31
			c0.044,0.256,0.098,0.507,0.146,0.762c0.095,0.505,0.19,1.01,0.298,1.508c0.064,0.299,0.137,0.593,0.205,0.889
			c0.104,0.449,0.209,0.898,0.324,1.341c0.08,0.311,0.167,0.619,0.252,0.927c0.117,0.422,0.235,0.843,0.361,1.26
			c0.094,0.313,0.193,0.624,0.293,0.934c0.13,0.406,0.265,0.81,0.404,1.211c0.107,0.309,0.216,0.617,0.329,0.923
			c0.146,0.398,0.297,0.792,0.452,1.184c0.118,0.298,0.235,0.596,0.357,0.891c0.165,0.397,0.337,0.789,0.51,1.181
			c0.124,0.281,0.247,0.563,0.376,0.841c0.19,0.41,0.39,0.814,0.589,1.217c0.124,0.25,0.243,0.502,0.371,0.75
			c0.244,0.473,0.499,0.938,0.756,1.402c0.093,0.169,0.182,0.341,0.277,0.508c0.357,0.628,0.726,1.246,1.107,1.854
			c0.089,0.142,0.184,0.278,0.274,0.419c0.297,0.465,0.598,0.927,0.909,1.38c0.144,0.209,0.294,0.412,0.44,0.619
			c0.268,0.378,0.536,0.755,0.814,1.124c0.167,0.222,0.338,0.438,0.508,0.657c0.268,0.345,0.538,0.689,0.814,1.025
			c0.182,0.221,0.367,0.439,0.552,0.657c0.276,0.326,0.556,0.648,0.84,0.966c0.191,0.214,0.385,0.425,0.58,0.635
			c0.139,0.15,0.273,0.306,0.414,0.454H49.812v0c-17.224,0-30.855-12.385-34.08-29.829H310.693z M411.12,98.348
			c0.003-0.051,0.008-0.104,0.015-0.156c0.034-0.229,0.076-0.456,0.115-0.683c0.054-0.32,0.109-0.64,0.172-0.958
			c0.048-0.242,0.102-0.482,0.155-0.722c0.066-0.298,0.133-0.595,0.206-0.89c0.062-0.248,0.128-0.495,0.195-0.741
			c0.077-0.281,0.156-0.562,0.239-0.84c0.075-0.252,0.154-0.502,0.235-0.751c0.086-0.266,0.176-0.53,0.269-0.794
			c0.09-0.255,0.181-0.51,0.277-0.762c0.094-0.249,0.193-0.495,0.293-0.742c0.105-0.26,0.21-0.519,0.322-0.776
			c0.099-0.229,0.204-0.455,0.308-0.681c0.123-0.267,0.245-0.536,0.374-0.799c0.096-0.196,0.199-0.388,0.299-0.582
			c0.148-0.288,0.294-0.576,0.45-0.859c0.06-0.11,0.126-0.216,0.187-0.325c0.693-1.227,1.454-2.411,2.286-3.54
			c0.008-0.011,0.015-0.021,0.023-0.032c0.268-0.362,0.545-0.717,0.826-1.069c0.045-0.056,0.088-0.113,0.133-0.169
			c0.275-0.34,0.559-0.673,0.846-1.002c0.053-0.061,0.106-0.123,0.16-0.184c0.292-0.33,0.591-0.653,0.896-0.972
			c0.05-0.052,0.099-0.105,0.15-0.157c0.316-0.326,0.638-0.647,0.966-0.961c0.037-0.035,0.074-0.07,0.111-0.106
			c0.346-0.328,0.698-0.65,1.058-0.964c0.012-0.011,0.025-0.021,0.037-0.032c4.596-4.003,10.252-6.826,16.494-7.988
			c0.003-0.001,0.007-0.001,0.01-0.002c0.511-0.095,1.027-0.179,1.546-0.251c0.031-0.004,0.062-0.008,0.093-0.012
			c0.495-0.068,0.993-0.126,1.494-0.173c0.076-0.007,0.153-0.011,0.23-0.017c0.459-0.04,0.919-0.074,1.383-0.096
			c0.268-0.012,0.538-0.014,0.808-0.021c0.29-0.007,0.579-0.02,0.871-0.02c17.224,0,30.855,12.385,34.08,29.829H411.12z"/>
	</g>
</g>
<g>
	<g>
		<path d="M511.992,191.831c-0.001-0.087-0.003-0.174-0.006-0.262c-0.03-0.706-0.157-1.386-0.37-2.03
			c-0.01-0.032-0.014-0.065-0.025-0.096c-0.009-0.026-0.024-0.05-0.033-0.076c-0.118-0.329-0.254-0.649-0.414-0.955
			c-0.02-0.038-0.043-0.073-0.063-0.111c-0.148-0.27-0.312-0.529-0.491-0.778c-0.038-0.053-0.074-0.108-0.113-0.16
			c-0.197-0.26-0.411-0.506-0.64-0.738c-0.05-0.051-0.103-0.098-0.154-0.147c-0.216-0.208-0.444-0.403-0.684-0.584
			c-0.032-0.024-0.062-0.051-0.095-0.075c-0.27-0.196-0.556-0.371-0.851-0.531c-0.057-0.031-0.114-0.059-0.172-0.088
			c-0.301-0.152-0.609-0.291-0.932-0.402c-0.002-0.001-0.004-0.002-0.006-0.002c-0.321-0.11-0.654-0.193-0.993-0.26
			c-0.075-0.015-0.15-0.028-0.226-0.04c-0.339-0.056-0.683-0.098-1.036-0.107c-62.798-1.625-144.684,13.492-186.083,60.752
			c-18.118,20.683-26.478,46.923-34.562,72.298c-0.662,2.077-1.323,4.153-1.99,6.226c-0.028,0.087-0.055,0.175-0.08,0.264
			l-12.684,45.049c-1.123,3.989,1.201,8.135,5.19,9.259c0.68,0.192,1.365,0.282,2.038,0.282c3.277,0,6.289-2.164,7.221-5.474
			l11.764-41.782c14.381-6.74,25.961-9.892,41.603-14.145c8.114-2.208,17.311-4.708,28.44-8.131
			c24.06-7.4,70.216-38.36,91.458-61.347c18.578-20.106,34.211-35.048,52.271-49.961c0.021-0.017,0.037-0.038,0.058-0.056
			c0.263-0.223,0.513-0.46,0.743-0.717c0.014-0.016,0.029-0.03,0.043-0.045c0.227-0.257,0.433-0.533,0.624-0.821
			c0.035-0.053,0.069-0.106,0.103-0.16c0.36-0.573,0.644-1.196,0.84-1.86c0.019-0.063,0.037-0.125,0.054-0.189
			c0.087-0.326,0.159-0.658,0.202-1c0.002-0.014,0.002-0.027,0.003-0.041c0.028-0.232,0.048-0.467,0.054-0.705
			C512.001,191.999,511.993,191.915,511.992,191.831z M329.897,255.031c17.469-19.943,44.244-34.976,79.582-44.68
			c9.497-2.608,19.533-4.772,29.876-6.48c-26.281,12.745-51.41,28.708-65.453,38.089c-22.663,15.14-47.127,33.505-65.193,49.839
			C314.055,278.257,320.518,265.738,329.897,255.031z M445.979,237.452c-20.674,22.373-65.325,51.183-84.846,57.186
			c-10.894,3.35-19.964,5.818-27.967,7.994c-7.241,1.969-13.828,3.763-20.342,5.831c2.914-2.791,6.33-5.92,10.357-9.433
			c16.206-14.136,37.18-29.971,59.059-44.587c37.882-25.307,72.164-43.071,97.315-50.772
			C468.632,213.731,457.888,224.563,445.979,237.452z"/>
	</g>
</g>
<g>
</g>
<g>
</g>
<g>
</g>
<g>
</g>
<g>
</g>
<g>
</g>
<g>
</g>
<g>
</g>
<g>
</g>
<g>
</g>
<g>
</g>
<g>
</g>
<g>
</g>
<g>
</g>
<g>
</g>
</svg>
