<svg width="232" height="367" viewBox="0 0 232 367" xmlns="http://www.w3.org/2000/svg"><title>Fill 1</title><path style="fill:#FFF;" d="M190.02 279.731c0-34.495-18.11-62.963-71.584-81.073l-40.537-13.793C25.28 166.742 4.157 133.97 4.157 94.737c0-61.24 47.433-94.01 109.527-94.01 43.13 0 69.874 9.054 94.446 23.716v52.605h-4.318c-19.399-49.157-51.736-62.964-88.824-62.964-39.682 0-69.86 27.6-69.86 61.24 0 29.323 11.213 52.185 53.895 67.28l31.916 11.2c42.26 14.662 100.907 35.8 100.907 105.66 0 64.252-44.84 107.382-118.162 107.382-45.709 0-84.087-9.924-113.41-30.192v-59.516H4.59c28.454 71.598 68.136 74.177 103.5 74.177 55.199 0 81.929-31.916 81.929-71.584" fill-rule="evenodd"/></svg>