<?xml version='1.0' encoding='utf-8'?>
<!DOCTYPE svg PUBLIC '-//W3C//DTD SVG 1.1//EN' 'http://www.w3.org/Graphics/SVG/1.1/DTD/svg11.dtd'>
<svg width="64" version="1.1" xmlns="http://www.w3.org/2000/svg" height="64" viewBox="0 0 64 64" xmlns:xlink="http://www.w3.org/1999/xlink" enable-background="new 0 0 64 64">
  <g>
    <g>
      <path fill="#1D1D1B" d="m38.463,64.008c-2.217,0-4.488-0.322-6.748-0.957-3.957-0.896-11.838-5.299-12.633-15.373l-.006-18.977h-4.076c-1.104,0-2-0.895-2-2v-7.764c0-0.799 0.477-1.52 1.207-1.836 0.426-0.186 10.496-4.711 10.496-15.094 0-1.105 0.896-2 2-2h9.229c1.104,0 2,0.895 2,2v13.333h10.039c1.104,0 2,0.895 2,2v9.361c0,1.105-0.896,2-2,2h-10.354v16.475c-0.004,0.635 0.211,2.449 1.207,3.451 1.234,1.238 3.639,1.049 6.918-0.43 0.514-0.229 1.098-0.234 1.617-0.012 0.516,0.225 0.914,0.654 1.096,1.188l2.949,8.602c0.271,0.791 0.021,1.668-0.627,2.197-0.191,0.156-4.783,3.836-12.314,3.836zm-21.463-39.307h4.074c1.105,0 2,0.895 2,2v20.819c0.754,9.451 9.271,11.572 9.633,11.656 2,0.561 3.904,0.832 5.756,0.832 4.092,0 7.115-1.336 8.654-2.207l-1.766-5.15c-4.047,1.375-7.285,0.906-9.387-1.229-2.34-2.377-2.354-5.885-2.348-6.277v-18.444c0-1.105 0.895-2 2-2h10.354v-5.361h-10.038c-1.104,0-2-0.895-2-2v-13.332h-5.326c-0.961,9.494-8.586,14.529-11.606,16.166v4.527z"/>
    </g>
  </g>
</svg>
