<?xml version="1.0" encoding="iso-8859-1"?>
<!-- Generator: Adobe Illustrator 16.0.0, SVG Export Plug-In . SVG Version: 6.00 Build 0)  -->
<!DOCTYPE svg PUBLIC "-//W3C//DTD SVG 1.1//EN" "http://www.w3.org/Graphics/SVG/1.1/DTD/svg11.dtd">
<svg version="1.1" id="Capa_1" xmlns="http://www.w3.org/2000/svg" xmlns:xlink="http://www.w3.org/1999/xlink" x="0px" y="0px"
	 width="430.118px" height="430.118px" viewBox="0 0 430.118 430.118" style="enable-background:new 0 0 430.118 430.118;"
	 xml:space="preserve">
<g>
	<path id="Tumblr" d="M252.797,351.543c-7.229-4.247-13.866-11.547-16.513-18.589c-2.679-7.09-2.338-21.455-2.338-46.419V176.243
		h100.301V99.477H233.951V0h-61.713c-2.753,22.155-7.824,40.459-15.18,54.815c-7.369,14.377-17.088,26.658-29.276,36.924
		c-12.127,10.246-31.895,18.143-48.927,23.589v60.915h58.922v150.836c0,19.694,2.088,34.718,6.24,45.061
		c4.172,10.333,11.623,20.124,22.386,29.337c10.762,9.115,23.758,16.228,39.003,21.226c15.227,4.942,26.936,7.416,46.767,7.416
		c17.445,0,33.687-1.759,48.747-5.198c15.042-3.529,31.834-9.605,50.344-18.221v-67.859c-21.721,14.169-43.567,21.221-65.535,21.221
		C273.364,360.065,262.435,357.223,252.797,351.543z"/>
</g>
<g>
</g>
<g>
</g>
<g>
</g>
<g>
</g>
<g>
</g>
<g>
</g>
<g>
</g>
<g>
</g>
<g>
</g>
<g>
</g>
<g>
</g>
<g>
</g>
<g>
</g>
<g>
</g>
<g>
</g>
</svg>
