<?xml version="1.0" encoding="iso-8859-1"?>
<!-- Generator: Adobe Illustrator 16.0.0, SVG Export Plug-In . SVG Version: 6.00 Build 0)  -->
<!DOCTYPE svg PUBLIC "-//W3C//DTD SVG 1.1//EN" "http://www.w3.org/Graphics/SVG/1.1/DTD/svg11.dtd">
<svg version="1.1" id="Capa_1" xmlns="http://www.w3.org/2000/svg" xmlns:xlink="http://www.w3.org/1999/xlink" x="0px" y="0px"
	 width="475.082px" height="475.081px" viewBox="0 0 475.082 475.081" style="enable-background:new 0 0 475.082 475.081;"
	 xml:space="preserve">
<g>
	<g>
		<path d="M200.999,63.952c-4.946,0-9.229,1.812-12.847,5.426l-95.074,95.075H18.276c-4.952,0-9.234,1.812-12.85,5.424
			C1.809,173.493,0,177.778,0,182.726v109.63c0,4.949,1.809,9.233,5.426,12.848c3.619,3.617,7.902,5.427,12.85,5.427h74.798
			l95.074,95.078c3.617,3.61,7.9,5.424,12.847,5.424c4.952,0,9.234-1.813,12.85-5.424c3.617-3.614,5.426-7.901,5.426-12.847V82.228
			c0-4.948-1.809-9.234-5.422-12.85C210.23,65.764,205.951,63.952,200.999,63.952z"/>
		<path d="M316.769,277.936c8.093-12.467,12.135-25.93,12.135-40.395s-4.042-27.992-12.135-40.556
			c-8.094-12.562-18.791-21.41-32.121-26.551c-1.902-0.949-4.284-1.427-7.139-1.427c-4.944,0-9.232,1.762-12.847,5.282
			c-3.61,3.521-5.427,7.852-5.427,12.99c0,3.997,1.143,7.376,3.432,10.137c2.283,2.762,5.041,5.142,8.282,7.139
			c3.23,1.998,6.468,4.188,9.708,6.567c3.238,2.38,5.996,5.758,8.278,10.135c2.276,4.38,3.426,9.804,3.426,16.277
			c0,6.471-1.143,11.896-3.426,16.276c-2.282,4.381-5.04,7.755-8.278,10.14c-3.24,2.379-6.478,4.569-9.708,6.567
			c-3.241,1.992-5.999,4.377-8.282,7.132c-2.282,2.765-3.432,6.143-3.432,10.14c0,5.144,1.816,9.47,5.427,12.99
			c3.614,3.521,7.902,5.288,12.847,5.288c2.854,0,5.236-0.479,7.139-1.424C297.978,299.304,308.679,290.403,316.769,277.936z"/>
	</g>
</g>
<g>
</g>
<g>
</g>
<g>
</g>
<g>
</g>
<g>
</g>
<g>
</g>
<g>
</g>
<g>
</g>
<g>
</g>
<g>
</g>
<g>
</g>
<g>
</g>
<g>
</g>
<g>
</g>
<g>
</g>
</svg>
